<?xml version="1.0" encoding="UTF-8" standalone="no"?><svg xmlns="http://www.w3.org/2000/svg" xmlns:xlink="http://www.w3.org/1999/xlink" contentScriptType="application/ecmascript" contentStyleType="text/css" height="222px" preserveAspectRatio="none" style="width:750px;height:222px;" version="1.1" viewBox="0 0 750 222" width="750px" zoomAndPan="magnify"><defs><filter height="300%" id="f14b1fbi0afmt6" width="300%" x="-1" y="-1"><feGaussianBlur result="blurOut" stdDeviation="2.0"/><feColorMatrix in="blurOut" result="blurOut2" type="matrix" values="0 0 0 0 0 0 0 0 0 0 0 0 0 0 0 0 0 0 .4 0"/><feOffset dx="4.0" dy="4.0" in="blurOut2" result="blurOut3"/><feBlend in="SourceGraphic" in2="blurOut3" mode="normal"/></filter></defs><g><ellipse cx="16" cy="109.5" fill="#000000" filter="url(#f14b1fbi0afmt6)" rx="10" ry="10" style="stroke: none; stroke-width: 1.0;"/><ellipse cx="729" cy="109.5" fill="none" filter="url(#f14b1fbi0afmt6)" rx="10" ry="10" style="stroke: #000000; stroke-width: 1.0;"/><ellipse cx="729.5" cy="110" fill="#000000" rx="6" ry="6" style="stroke: none; stroke-width: 1.0;"/><rect fill="#FEFECE" filter="url(#f14b1fbi0afmt6)" height="203.2969" rx="12.5" ry="12.5" style="stroke: #A80036; stroke-width: 1.5;" width="507" x="87" y="8"/><rect fill="#FFFFFF" height="171" rx="12.5" ry="12.5" style="stroke: #FFFFFF; stroke-width: 1.0;" width="501" x="90" y="37.2969"/><line style="stroke: #A80036; stroke-width: 1.5;" x1="87" x2="594" y1="34.2969" y2="34.2969"/><text fill="#000000" font-family="sans-serif" font-size="14" lengthAdjust="spacingAndGlyphs" textLength="27" x="327" y="25.9951">App</text><ellipse cx="108" cy="121.7969" fill="#000000" filter="url(#f14b1fbi0afmt6)" rx="10" ry="10" style="stroke: none; stroke-width: 1.0;"/><rect fill="#FEFECE" filter="url(#f14b1fbi0afmt6)" height="50" rx="12.5" ry="12.5" style="stroke: #A80036; stroke-width: 1.5;" width="59" x="155" y="96.7969"/><line style="stroke: #A80036; stroke-width: 1.5;" x1="155" x2="214" y1="123.0938" y2="123.0938"/><text fill="#000000" font-family="sans-serif" font-size="14" lengthAdjust="spacingAndGlyphs" textLength="39" x="165" y="114.792">Menu</text><rect fill="#FEFECE" filter="url(#f14b1fbi0afmt6)" height="149.2969" rx="12.5" ry="12.5" style="stroke: #A80036; stroke-width: 1.5;" width="272" x="289" y="47.2969"/><rect fill="#FFFFFF" height="117" rx="12.5" ry="12.5" style="stroke: #FFFFFF; stroke-width: 1.0;" width="266" x="292" y="76.5938"/><line style="stroke: #A80036; stroke-width: 1.5;" x1="289" x2="561" y1="73.5938" y2="73.5938"/><text fill="#000000" font-family="sans-serif" font-size="14" lengthAdjust="spacingAndGlyphs" textLength="27" x="411.5" y="65.292">Play</text><ellipse cx="310" cy="156.5938" fill="#000000" filter="url(#f14b1fbi0afmt6)" rx="10" ry="10" style="stroke: none; stroke-width: 1.0;"/><rect fill="#FEFECE" filter="url(#f14b1fbi0afmt6)" height="50" rx="12.5" ry="12.5" style="stroke: #A80036; stroke-width: 1.5;" width="50" x="357" y="131.5938"/><line style="stroke: #A80036; stroke-width: 1.5;" x1="357" x2="407" y1="157.8906" y2="157.8906"/><text fill="#000000" font-family="sans-serif" font-size="14" lengthAdjust="spacingAndGlyphs" textLength="30" x="367" y="149.5889">Ping</text><rect fill="#FEFECE" filter="url(#f14b1fbi0afmt6)" height="50" rx="12.5" ry="12.5" style="stroke: #A80036; stroke-width: 1.5;" width="56" x="472" y="131.5938"/><line style="stroke: #A80036; stroke-width: 1.5;" x1="472" x2="528" y1="157.8906" y2="157.8906"/><text fill="#000000" font-family="sans-serif" font-size="14" lengthAdjust="spacingAndGlyphs" textLength="36" x="482" y="149.5889">Pong</text><!--link *start*Play to Ping--><path d="M320.15,156.5938 C328.19,156.5938 340.33,156.5938 351.65,156.5938 " fill="none" id="*start*Play-Ping" style="stroke: #A80036; stroke-width: 1.0;"/><polygon fill="#A80036" points="356.78,156.5938,347.78,152.5938,351.78,156.5938,347.78,160.5938,356.78,156.5938" style="stroke: #A80036; stroke-width: 1.0;"/><!--link Ping to Ping--><path d="M374.16,131.4138 C373.81,121.6838 376.42,113.5938 382,113.5938 C386.53,113.5938 389.11,118.9338 389.73,126.1538 " fill="none" id="Ping-Ping" style="stroke: #A80036; stroke-width: 1.0;"/><polygon fill="#A80036" points="389.84,131.4138,393.6592,122.3356,389.74,126.4147,385.6608,122.4955,389.84,131.4138" style="stroke: #A80036; stroke-width: 1.0;"/><text fill="#000000" font-family="sans-serif" font-size="13" lengthAdjust="spacingAndGlyphs" textLength="27" x="368.5" y="104.6606">ping</text><!--link Ping to Pong--><path d="M407.04,156.5938 C424.26,156.5938 447.66,156.5938 466.55,156.5938 " fill="none" id="Ping-Pong" style="stroke: #A80036; stroke-width: 1.0;"/><polygon fill="#A80036" points="471.74,156.5938,462.74,152.5938,466.74,156.5938,462.74,160.5938,471.74,156.5938" style="stroke: #A80036; stroke-width: 1.0;"/><text fill="#000000" font-family="sans-serif" font-size="13" lengthAdjust="spacingAndGlyphs" textLength="27" x="426" y="152.6606">ping</text><!--link Pong to Pong--><path d="M488.79,131.4138 C488.3,121.6838 492.03,113.5938 500,113.5938 C506.47,113.5938 510.15,118.9338 511.04,126.1538 " fill="none" id="Pong-Pong" style="stroke: #A80036; stroke-width: 1.0;"/><polygon fill="#A80036" points="511.21,131.4138,514.9253,122.2925,511.0529,126.4162,506.9293,122.5438,511.21,131.4138" style="stroke: #A80036; stroke-width: 1.0;"/><text fill="#000000" font-family="sans-serif" font-size="13" lengthAdjust="spacingAndGlyphs" textLength="32" x="484" y="104.6606">pong</text><!--link Pong to Ping--><path d="M471.58,171.6737 C465.93,174.1238 459.89,176.2838 454,177.5938 C441.42,180.3838 437.54,180.5537 425,177.5938 C420.57,176.5438 416.08,174.9638 411.76,173.1137 " fill="none" id="Pong-Ping" style="stroke: #A80036; stroke-width: 1.0;"/><polygon fill="#A80036" points="407.15,171.0338,413.6881,178.3994,411.7018,173.1028,416.9985,171.1165,407.15,171.0338" style="stroke: #A80036; stroke-width: 1.0;"/><text fill="#000000" font-family="sans-serif" font-size="13" lengthAdjust="spacingAndGlyphs" textLength="27" x="426" y="173.6606">ping</text><!--link *start*App to Menu--><path d="M118.14,121.7969 C126.09,121.7969 138.13,121.7969 149.71,121.7969 " fill="none" id="*start*App-Menu" style="stroke: #A80036; stroke-width: 1.0;"/><polygon fill="#A80036" points="154.99,121.7969,145.99,117.7969,149.99,121.7969,145.99,125.7969,154.99,121.7969" style="stroke: #A80036; stroke-width: 1.0;"/><!--link Menu to Play--><path d="M214.27,121.7969 C232.39,121.7969 257.27,121.7969 283.57,121.7969 " fill="none" id="Menu-Play" style="stroke: #A80036; stroke-width: 1.0;"/><polygon fill="#A80036" points="288.85,121.7969,279.85,117.7969,283.85,121.7969,279.85,125.7969,288.85,121.7969" style="stroke: #A80036; stroke-width: 1.0;"/><text fill="#000000" font-family="sans-serif" font-size="13" lengthAdjust="spacingAndGlyphs" textLength="26" x="238.5" y="117.8638">play</text><!--link Play to Menu--><path d="M288.9,147.4669 C269.7,147.9569 250.28,146.7369 232,142.7969 C227.61,141.8569 223.14,140.4569 218.79,138.8269 " fill="none" id="Play-Menu" style="stroke: #A80036; stroke-width: 1.0;"/><polygon fill="#A80036" points="214.12,136.9869,221.0094,144.025,218.7673,138.8315,223.9608,136.5894,214.12,136.9869" style="stroke: #A80036; stroke-width: 1.0;"/><text fill="#000000" font-family="sans-serif" font-size="13" lengthAdjust="spacingAndGlyphs" textLength="37" x="233" y="138.8638">menu</text><!--link *start to App--><path d="M26.3,109.5 C37.29,109.5 57.24,109.5 81.95,109.5 " fill="none" id="*start-App" style="stroke: #A80036; stroke-width: 1.0;"/><polygon fill="#A80036" points="86.96,109.5,77.96,105.5,81.96,109.5,77.96,113.5,86.96,109.5" style="stroke: #A80036; stroke-width: 1.0;"/><!--link App to *end--><path d="M594.18,109.5 C646.12,109.5 691.71,109.5 713.82,109.5 " fill="none" id="App-*end" style="stroke: #A80036; stroke-width: 1.0;"/><polygon fill="#A80036" points="718.93,109.5,709.93,105.5,713.93,109.5,709.93,113.5,718.93,109.5" style="stroke: #A80036; stroke-width: 1.0;"/><text fill="#000000" font-family="sans-serif" font-size="13" lengthAdjust="spacingAndGlyphs" textLength="63" x="625" y="105.5669">terminate</text><!--
@startuml res/hierarchy
left to right direction
[*] - -> App
state App {
[*] - -> Menu
state Menu {
}

state Play {
  [*] - -> Ping

  Ping - -> Ping : ping
  Ping - -> Pong : ping
  Pong - -> Pong : pong
  Pong - -> Ping : ping
}
Menu - -> Play: play
Play - -> Menu: menu
}
App - -> [*]: terminate
@enduml

PlantUML version 1.2018.13(Mon Nov 26 18:11:51 CET 2018)
(GPL source distribution)
Java Runtime: OpenJDK Runtime Environment
JVM: OpenJDK 64-Bit Server VM
Java Version: 11.0.8+10-post-Ubuntu-0ubuntu120.04
Operating System: Linux
OS Version: 5.4.0-51-generic
Default Encoding: UTF-8
Language: en
Country: US
--></g></svg>