<?xml version="1.0" encoding="UTF-8" standalone="no"?><svg xmlns="http://www.w3.org/2000/svg" xmlns:xlink="http://www.w3.org/1999/xlink" contentScriptType="application/ecmascript" contentStyleType="text/css" height="675px" preserveAspectRatio="none" style="width:224px;height:675px;" version="1.1" viewBox="0 0 224 675" width="224px" zoomAndPan="magnify"><defs><filter height="300%" id="f10fua98llwmvm" width="300%" x="-1" y="-1"><feGaussianBlur result="blurOut" stdDeviation="2.0"/><feColorMatrix in="blurOut" result="blurOut2" type="matrix" values="0 0 0 0 0 0 0 0 0 0 0 0 0 0 0 0 0 0 .4 0"/><feOffset dx="4.0" dy="4.0" in="blurOut2" result="blurOut3"/><feBlend in="SourceGraphic" in2="blurOut3" mode="normal"/></filter></defs><g><ellipse cx="109" cy="18" fill="#000000" filter="url(#f10fua98llwmvm)" rx="10" ry="10" style="stroke: none; stroke-width: 1.0;"/><ellipse cx="109" cy="654" fill="none" filter="url(#f10fua98llwmvm)" rx="10" ry="10" style="stroke: #000000; stroke-width: 1.0;"/><ellipse cx="109.5" cy="654.5" fill="#000000" rx="6" ry="6" style="stroke: none; stroke-width: 1.0;"/><rect fill="#FEFECE" filter="url(#f10fua98llwmvm)" height="478.2969" rx="12.5" ry="12.5" style="stroke: #A80036; stroke-width: 1.5;" width="206" x="6" y="89"/><rect fill="#FFFFFF" height="446" rx="12.5" ry="12.5" style="stroke: #FFFFFF; stroke-width: 1.0;" width="200" x="9" y="118.2969"/><line style="stroke: #A80036; stroke-width: 1.5;" x1="6" x2="212" y1="115.2969" y2="115.2969"/><text fill="#000000" font-family="sans-serif" font-size="14" lengthAdjust="spacingAndGlyphs" textLength="27" x="95.5" y="106.9951">App</text><ellipse cx="98" cy="138.2969" fill="#000000" filter="url(#f10fua98llwmvm)" rx="10" ry="10" style="stroke: none; stroke-width: 1.0;"/><rect fill="#FEFECE" filter="url(#f10fua98llwmvm)" height="50" rx="12.5" ry="12.5" style="stroke: #A80036; stroke-width: 1.5;" width="59" x="68.5" y="185.2969"/><line style="stroke: #A80036; stroke-width: 1.5;" x1="68.5" x2="127.5" y1="211.5938" y2="211.5938"/><text fill="#000000" font-family="sans-serif" font-size="14" lengthAdjust="spacingAndGlyphs" textLength="39" x="78.5" y="203.292">Menu</text><rect fill="#FEFECE" filter="url(#f10fua98llwmvm)" height="264.2969" rx="12.5" ry="12.5" style="stroke: #A80036; stroke-width: 1.5;" width="162" x="17" y="288.2969"/><rect fill="#FFFFFF" height="232" rx="12.5" ry="12.5" style="stroke: #FFFFFF; stroke-width: 1.0;" width="156" x="20" y="317.5938"/><line style="stroke: #A80036; stroke-width: 1.5;" x1="17" x2="179" y1="314.5938" y2="314.5938"/><text fill="#000000" font-family="sans-serif" font-size="14" lengthAdjust="spacingAndGlyphs" textLength="27" x="84.5" y="306.292">Play</text><ellipse cx="56" cy="337.5938" fill="#000000" filter="url(#f10fua98llwmvm)" rx="10" ry="10" style="stroke: none; stroke-width: 1.0;"/><rect fill="#FEFECE" filter="url(#f10fua98llwmvm)" height="50" rx="12.5" ry="12.5" style="stroke: #A80036; stroke-width: 1.5;" width="50" x="31" y="384.5938"/><line style="stroke: #A80036; stroke-width: 1.5;" x1="31" x2="81" y1="410.8906" y2="410.8906"/><text fill="#000000" font-family="sans-serif" font-size="14" lengthAdjust="spacingAndGlyphs" textLength="30" x="41" y="402.5889">Ping</text><rect fill="#FEFECE" filter="url(#f10fua98llwmvm)" height="50" rx="12.5" ry="12.5" style="stroke: #A80036; stroke-width: 1.5;" width="56" x="28" y="487.5938"/><line style="stroke: #A80036; stroke-width: 1.5;" x1="28" x2="84" y1="513.8906" y2="513.8906"/><text fill="#000000" font-family="sans-serif" font-size="14" lengthAdjust="spacingAndGlyphs" textLength="36" x="38" y="505.5889">Pong</text><!--link *start*Play to Ping--><path d="M56,347.7438 C56,355.7838 56,367.9238 56,379.2438 " fill="none" id="*start*Play-Ping" style="stroke: #A80036; stroke-width: 1.0;"/><polygon fill="#A80036" points="56,384.3738,60,375.3738,56,379.3738,52,375.3738,56,384.3738" style="stroke: #A80036; stroke-width: 1.0;"/><!--link Ping to Ping--><path d="M81.18,401.7537 C90.91,401.4038 99,404.0137 99,409.5938 C99,414.1238 93.66,416.7038 86.44,417.3238 " fill="none" id="Ping-Ping" style="stroke: #A80036; stroke-width: 1.0;"/><polygon fill="#A80036" points="81.18,417.4338,90.2582,421.253,86.179,417.3338,90.0982,413.2546,81.18,417.4338" style="stroke: #A80036; stroke-width: 1.0;"/><text fill="#000000" font-family="sans-serif" font-size="13" lengthAdjust="spacingAndGlyphs" textLength="27" x="105" y="414.1606">ping</text><!--link Ping to Pong--><path d="M38.58,434.9138 C35.46,440.4738 32.67,446.5438 31,452.5938 C28.21,462.7338 30.89,473.4338 35.38,482.8837 " fill="none" id="Ping-Pong" style="stroke: #A80036; stroke-width: 1.0;"/><polygon fill="#A80036" points="37.71,487.4238,37.1246,477.5923,35.4113,482.9835,30.0202,481.2702,37.71,487.4238" style="stroke: #A80036; stroke-width: 1.0;"/><text fill="#000000" font-family="sans-serif" font-size="13" lengthAdjust="spacingAndGlyphs" textLength="27" x="32" y="465.6606">ping</text><!--link Pong to Pong--><path d="M84.3,503.2238 C94.09,503.1238 102,506.2438 102,512.5938 C102,517.7538 96.78,520.7838 89.57,521.6838 " fill="none" id="Pong-Pong" style="stroke: #A80036; stroke-width: 1.0;"/><polygon fill="#A80036" points="84.3,521.9638,93.5041,525.4686,89.2926,521.6919,93.0692,517.4804,84.3,521.9638" style="stroke: #A80036; stroke-width: 1.0;"/><text fill="#000000" font-family="sans-serif" font-size="13" lengthAdjust="spacingAndGlyphs" textLength="32" x="108" y="517.1606">pong</text><!--link Pong to Ping--><path d="M58.89,487.4938 C59.85,476.8038 60.55,464.0838 60,452.5938 C59.81,448.5838 59.52,444.3638 59.17,440.2038 " fill="none" id="Pong-Ping" style="stroke: #A80036; stroke-width: 1.0;"/><polygon fill="#A80036" points="58.72,434.9938,55.532,444.3124,59.1624,439.9741,63.5006,443.6045,58.72,434.9938" style="stroke: #A80036; stroke-width: 1.0;"/><text fill="#000000" font-family="sans-serif" font-size="13" lengthAdjust="spacingAndGlyphs" textLength="27" x="61" y="465.6606">ping</text><!--link *start*App to Menu--><path d="M98,148.4469 C98,156.4869 98,168.6269 98,179.9469 " fill="none" id="*start*App-Menu" style="stroke: #A80036; stroke-width: 1.0;"/><polygon fill="#A80036" points="98,185.0769,102,176.0769,98,180.0769,94,176.0769,98,185.0769" style="stroke: #A80036; stroke-width: 1.0;"/><!--link Menu to Play--><path d="M81.28,235.6869 C78.27,241.2469 75.6,247.2869 74,253.2969 C71.43,262.9669 69.98,273.0369 69.41,283.2269 " fill="none" id="Menu-Play" style="stroke: #A80036; stroke-width: 1.0;"/><polygon fill="#A80036" points="69.19,288.2269,73.5728,279.4069,69.4047,283.2315,65.5802,279.0634,69.19,288.2269" style="stroke: #A80036; stroke-width: 1.0;"/><text fill="#000000" font-family="sans-serif" font-size="13" lengthAdjust="spacingAndGlyphs" textLength="26" x="75" y="266.3638">play</text><!--link Play to Menu--><path d="M102.9,287.8869 C102.81,276.1869 102.53,264.5269 102,253.2969 C101.81,249.2869 101.52,245.0669 101.17,240.9069 " fill="none" id="Play-Menu" style="stroke: #A80036; stroke-width: 1.0;"/><polygon fill="#A80036" points="100.72,235.6969,97.532,245.0155,101.1624,240.6773,105.5006,244.3077,100.72,235.6969" style="stroke: #A80036; stroke-width: 1.0;"/><text fill="#000000" font-family="sans-serif" font-size="13" lengthAdjust="spacingAndGlyphs" textLength="37" x="103" y="266.3638">menu</text><!--link *start to App--><path d="M109,28.22 C109,39.15 109,59.02 109,83.51 " fill="none" id="*start-App" style="stroke: #A80036; stroke-width: 1.0;"/><polygon fill="#A80036" points="109,88.8,113,79.8,109,83.8,105,79.8,109,88.8" style="stroke: #A80036; stroke-width: 1.0;"/><!--link App to *end--><path d="M109,567.02 C109,597.7 109,623.67 109,638.8 " fill="none" id="App-*end" style="stroke: #A80036; stroke-width: 1.0;"/><polygon fill="#A80036" points="109,643.87,113,634.87,109,638.87,105,634.87,109,643.87" style="stroke: #A80036; stroke-width: 1.0;"/><text fill="#000000" font-family="sans-serif" font-size="13" lengthAdjust="spacingAndGlyphs" textLength="63" x="110" y="610.0669">terminate</text><!--
@startuml res/hierarchy
[*] - -> App
state App {
[*] - -> Menu
state Menu {
}

state Play {
  [*] - -> Ping

  Ping - -> Ping : ping
  Ping - -> Pong : ping
  Pong - -> Pong : pong
  Pong - -> Ping : ping
}
Menu - -> Play: play
Play - -> Menu: menu
}
App - -> [*]: terminate
@enduml

PlantUML version 1.2018.13(Mon Nov 26 18:11:51 CET 2018)
(GPL source distribution)
Java Runtime: OpenJDK Runtime Environment
JVM: OpenJDK 64-Bit Server VM
Java Version: 11.0.8+10-post-Ubuntu-0ubuntu120.04
Operating System: Linux
OS Version: 5.4.0-51-generic
Default Encoding: UTF-8
Language: en
Country: US
--></g></svg>